name analog
datacolumns 19
datarows 24
range 0.332 0.3435
endheader
time	ground_force_vx	ground_force_vy	ground_force_vz	ground_force_px	ground_force_py	ground_force_pz	l_ground_force_vx	l_ground_force_vy	l_ground_force_vz	l_ground_force_px	l_ground_force_py	l_ground_force_pz	ground_torque_x	ground_torque_y	ground_torque_z	l_ground_torque_x	l_ground_torque_y	l_ground_torque_z
0.332	-0.0	-0.0	-0.0	10.00351619720459	37.1572494506836	-369.8231201171875	-3.870418787002564	-48.16803359985352	-431.4651794433594	-35.19049835205078	16.183364868164062	77.1223373413086	-0.0	-0.0	-0.0	79063.671875	-19309.162109375	-9255.1533203125
0.3325	-0.0	-0.0	-0.0	9.958430290222168	36.69964599609375	-370.7077026367188	-3.758739233016968	-48.76549911499024	-432.598876953125	-35.01161193847656	16.36329460144043	73.87438201904297	-0.0	-0.0	-0.0	79303.703125	-19462.126953125	-9262.9091796875
0.333	-0.0	-0.0	-0.0	9.63525104522705	36.76655197143555	-372.0760803222656	-3.1605889797210693	-48.8309440612793	-435.3487854003906	-35.32494354248047	15.958277702331545	74.00625610351562	-0.0	-0.0	-0.0	79433.0703125	-19937.451171875	-9206.8251953125
0.3335	-0.0	-0.0	-0.0	9.98045253753662	36.88887023925781	-374.1505126953125	-2.395191192626953	-48.78653717041016	-436.7886962890625	-35.11241149902344	16.27324867248535	75.98098754882812	-0.0	-0.0	-0.0	80231.9765625	-20265.43359375	-9080.08203125
0.334	-0.0	-0.0	-0.0	10.192273139953612	36.65485382080078	-374.5470886230469	-1.3085618019104004	-48.76488494873047	-441.58984375	-35.313690185546875	16.48680305480957	75.32284545898438	-0.0	-0.0	-0.0	80795.1953125	-21011.5	-8964.3642578125
0.3345	-0.0	-0.0	-0.0	11.530315399169922	36.47666931152344	-381.2573547363281	-0.3770184814929962	-48.68733215332031	-442.7678833007813	-35.5262565612793	16.430522918701172	76.2429428100586	-0.0	-0.0	-0.0	81600.53125	-21337.583984375	-8789.4833984375
0.335	-0.0	-0.0	-0.0	11.485729217529297	37.25650787353516	-384.83294677734375	0.5542231798171997	-48.63230895996094	-446.5211486816406	-35.067718505859375	16.407718658447266	76.46331787109375	-0.0	-0.0	-0.0	82169.578125	-21845.0390625	-8785.07421875
0.3355	-0.0	-0.0	-0.0	11.820145606994627	37.925235748291016	-388.9823303222656	1.4413305521011353	-48.66525268554688	-448.3106689453125	-35.8720588684082	16.307193756103516	77.03245544433594	-0.0	-0.0	-0.0	82643.0625	-22246.31640625	-8543.517578125
0.336	-0.0	-0.0	-0.0	12.08762550354004	38.96123123168945	-392.9111328125	2.17311692237854	-48.45585632324219	-452.50048828125	-35.21268081665039	16.261737823486328	74.7528076171875	-0.0	-0.0	-0.0	83426.2890625	-22917.05859375	-8442.814453125
0.3365	-0.0	-0.0	-0.0	12.89036750793457	40.45392227172852	-396.3572692871094	3.0161666870117188	-48.62064743041992	-456.55804443359375	-35.4141960144043	16.56443214416504	76.02295684814453	-0.0	-0.0	-0.0	84189.3125	-23451.521484375	-8494.1201171875
0.337	-0.0	-0.0	-0.0	12.601247787475586	41.67816162109375	-398.8294982910156	4.103085994720459	-48.03585052490234	-460.7479553222656	-35.26933670043945	16.384536743164062	76.11209106445312	-0.0	-0.0	-0.0	84754.125	-23884.54296875	-8422.640625
0.3375	-0.0	-0.0	-0.0	13.225797653198242	42.14737319946289	-406.6391906738281	5.266484260559082	-47.69371032714844	-463.7175598144531	-35.469459533691406	16.46444320678711	75.4100341796875	-0.0	-0.0	-0.0	85711.6328125	-24554.25390625	-8254.9716796875
0.338	-0.0	-0.0	-0.0	13.63784885406494	43.72898483276367	-408.3659362792969	7.07432222366333	-47.70493316650391	-470.7394104003906	-35.53786849975586	16.026086807250977	76.81369018554688	-0.0	-0.0	-0.0	87012.515625	-25324.162109375	-8053.57861328125
0.3385	-0.0	-0.0	-0.0	14.249197006225586	44.08547592163086	-414.2350769042969	8.637252807617188	-47.075462341308594	-477.6333923339844	-35.03544998168945	16.29600715637207	77.02999877929688	-0.0	-0.0	-0.0	88121.6875	-25985.7890625	-7963.3212890625
0.339	-0.0	-0.0	-0.0	15.735260009765623	45.29901885986328	-419.7052307128906	10.798280715942385	-46.07372283935547	-484.0061340332031	-35.42555236816406	16.383684158325195	76.11161041259766	-0.0	-0.0	-0.0	89843.578125	-26874.673828125	-7817.015625
0.3395	-0.0	-0.0	-0.0	16.872228622436523	46.25868225097656	-425.93499755859375	11.809886932373049	-45.895469665527344	-490.1195068359375	-35.25814437866211	16.104564666748047	76.28180694580078	-0.0	-0.0	-0.0	91175.109375	-27668.693359375	-7671.7646484375
0.34	-0.0	-0.0	-0.0	18.63351821899414	47.79159164428711	-433.1245727539063	13.295228004455566	-45.488067626953125	-497.8807373046875	-35.28990936279297	16.284503936767578	73.80200958251953	-0.0	-0.0	-0.0	92693.3125	-28325.88671875	-7570.2373046875
0.3405	-0.0	-0.0	-0.0	20.495450973510746	47.96363067626953	-441.2021484375	15.221632957458496	-44.95816802978516	-506.0904541015625	-35.10237121582031	16.272886276245117	74.88875579833984	-0.0	-0.0	-0.0	94320.265625	-29576.05078125	-7424.22412109375
0.341	-0.0	-0.0	-0.0	22.613386154174805	49.76634216308594	-449.4156494140625	16.78645896911621	-44.887454986572266	-516.5086059570312	-35.056129455566406	16.484479904174805	76.46210479736328	-0.0	-0.0	-0.0	96080.625	-30404.265625	-7392.537109375
0.3415	-0.0	-0.0	-0.0	24.909587860107425	51.31275939941406	-458.7220458984375	19.235727310180664	-44.31464767456055	-524.2452392578125	-35.5150146484375	16.194534301757812	75.85128021240234	-0.0	-0.0	-0.0	98109.34375	-31567.197265625	-7168.60302734375
0.342	-0.0	-0.0	-0.0	27.89974975585937	52.61005783081055	-465.93597412109375	22.008621215820312	-45.02119827270508	-534.1444702148438	-34.9237174987793	16.100893020629883	76.11095428466797	-0.0	-0.0	-0.0	100101.75	-32655.513671875	-6751.505859375
0.3425	-0.0	-0.0	-0.0	30.137887954711918	54.575294494628906	-475.3801879882813	25.190427780151367	-45.462738037109375	-544.2684936523438	-35.30106735229492	16.26499366760254	76.0191879272461	-0.0	-0.0	-0.0	101998.7421875	-33632.81640625	-6086.314453125
0.343	-0.0	-0.0	-0.0	32.46097946166992	56.57453918457031	-482.0906372070313	29.290197372436523	-46.42269134521485	-555.6527099609375	-35.44898223876953	16.417316436767578	75.54662322998047	-0.0	-0.0	-0.0	103793.3671875	-34761.37109375	-5298.2080078125
0.3435	-0.0	-0.0	-0.0	33.954246520996094	58.27964019775391	-491.87152099609375	33.33991241455078	-48.112300872802734	-565.868896484375	-35.42555236816406	16.42162322998047	74.72371673583984	-0.0	-0.0	-0.0	105742.5234375	-35604.65234375	-4435.5146484375
